<svg preserveAspectRatio="none" width="100%" height="100%" overflow="visible" style="display: block;" viewBox="0 0 30 30" fill="none" xmlns="http://www.w3.org/2000/svg">
<g id="seedling">
<path id="Vector" d="M15.9145 19.0402C22.9186 27.0019 29.5313 17.8645 29.5313 17.8645C29.5313 17.8645 19.9913 14.6583 15.9145 19.0402Z" fill="var(--fill-0, #7AB51D)"/>
<path id="Vector_2" d="M15.8133 18.2583C20.8191 15.1444 29.5312 17.8645 29.5312 17.8645C29.5312 17.8645 19.1644 7.27266 15.8133 18.2583Z" fill="var(--fill-0, #92C932)"/>
<path id="Vector_3" d="M14.872 18.9131C13.8862 19.9256 13.9833 21.7073 15.0989 20.2041C18.7922 15.225 27.2517 17.3859 29.5313 17.8645C27.3338 17.2331 19.3702 14.2927 14.872 18.9131Z" fill="var(--fill-0, #529320)"/>
<path id="Vector_4" d="M14.1403 18.6722C13.9238 17.9489 12.6703 18.4505 13.08 19.8267C13.6955 21.893 13.3481 26.8444 12.5006 28.6842C12.2512 29.2233 14.4122 29.1816 14.4684 28.5872C14.8767 24.2658 14.332 21.3342 15.2091 20.2312C15.5634 19.7864 14.347 19.3608 14.1403 18.6722Z" fill="url(#paint0_linear_0_202)"/>
<path id="Vector_5" d="M12.0164 15.1444C0.46875 19.9777 0.46875 3.75 0.46875 3.75C0.46875 3.75 8.27719 8.96156 12.0164 15.1444Z" fill="var(--fill-0, #7AB51D)"/>
<path id="Vector_6" d="M12.0164 15.1444C9.52172 9.88359 0.46875 3.75 0.46875 3.75C0.46875 3.75 16.0767 3.75 12.0164 15.1444Z" fill="var(--fill-0, #92C932)"/>
<path id="Vector_7" d="M13.868 18.4139C11.5866 10.9495 2.80594 5.16797 0.46875 3.75C2.84062 5.38078 12.0164 13.5281 13.1006 19.5155C13.1484 19.7761 14.1258 19.2572 13.868 18.4139Z" fill="var(--fill-0, #529320)"/>
</g>
<defs>
<linearGradient id="paint0_linear_0_202" x1="12.4805" y1="23.7023" x2="15.2737" y2="23.7023" gradientUnits="userSpaceOnUse">
<stop stop-color="#677339"/>
<stop offset="0.302" stop-color="#647037"/>
<stop offset="0.535" stop-color="#5A6632"/>
<stop offset="0.745" stop-color="#4A562A"/>
<stop offset="0.94" stop-color="#333F1E"/>
<stop offset="1" stop-color="#2A361A"/>
</linearGradient>
</defs>
</svg>
